<?xml version="1.0" encoding="utf-8"?>
<!-- Generator: Adobe Illustrator 28.1.0, SVG Export Plug-In . SVG Version: 6.00 Build 0)  -->
<svg version="1.1" id="Layer_1" xmlns="http://www.w3.org/2000/svg" xmlns:xlink="http://www.w3.org/1999/xlink" x="0px" y="0px"
	 viewBox="0 0 955.5 308" style="enable-background:new 0 0 955.5 308;" xml:space="preserve">
<style type="text/css">
	.st0{fill:#FFFFFF;}
	.st1{fill:#EF0000;}
	.st2{fill-rule:evenodd;clip-rule:evenodd;fill:#EF0000;}
</style>
<g>
	<circle class="st0" cx="181.5" cy="156" r="125"/>
	<circle class="st0" cx="508.5" cy="156" r="125"/>
	<path class="st1" d="M444.6,91.7c-2.7,0-4.9,2.2-4.9,4.9c0,2.7,2.2,4.9,4.9,4.9h9.1c1.1,0,2.1,0.8,2.4,1.8l16.9,63.2
		c-10.9,2.8-18.5,12.7-18.5,23.9c0,2.7,2.2,4.9,4.9,4.9h103.8c2.7,0,4.9-2.2,4.9-4.9s-2.2-4.9-4.9-4.9h-98c2.1-5.9,7.7-9.9,14-9.9
		h74c1.9,0,3.6-1.1,4.4-2.8c7.5-15.4,14-31.4,19.5-47.7c0.9-2.6-0.5-5.4-3.1-6.3c-0.1,0-0.2-0.1-0.3-0.1
		c-34.8-8.9-70.6-13-106.5-12.4l-1.5-5.7c-1.4-5.4-6.3-9.2-11.9-9.2H444.6z M454.4,210.4c0-5.5,4.4-9.9,9.9-9.9
		c5.5,0,9.9,4.4,9.9,9.9s-4.4,9.9-9.9,9.9C458.9,220.3,454.4,215.9,454.4,210.4z M538.5,210.4c0-5.5,4.4-9.9,9.9-9.9
		s9.9,4.4,9.9,9.9s-4.4,9.9-9.9,9.9S538.5,215.9,538.5,210.4z"/>
	<path class="st2" d="M140,100.7c0-22.9,18.5-41.4,41.4-41.4s41.4,18.5,41.4,41.4s-18.5,41.4-41.4,41.4S140,123.6,140,100.7z
		 M105.5,230.5c0.7-41.9,35.2-75.4,77.1-74.7c41,0.6,74.1,33.7,74.7,74.7c0,2.7-1.5,5.3-4,6.4c-22.5,10.3-47.1,15.7-71.9,15.6
		c-25.6,0-50-5.6-71.9-15.6C107,235.7,105.4,233.2,105.5,230.5z"/>
</g>
</svg>
