<?xml version="1.0" encoding="utf-8"?>
<!-- Generator: Adobe Illustrator 28.1.0, SVG Export Plug-In . SVG Version: 6.00 Build 0)  -->
<svg version="1.1" id="Layer_1" xmlns="http://www.w3.org/2000/svg" xmlns:xlink="http://www.w3.org/1999/xlink" x="0px" y="0px"
	 viewBox="0 0 2497.5 444" style="enable-background:new 0 0 2497.5 444;" xml:space="preserve">
<style type="text/css">
	.st0{fill:#FFFFFF;}
	.st1{fill-rule:evenodd;clip-rule:evenodd;fill:#FFFFFF;}
</style>
<g id="XMLID_10_">
	
		<ellipse id="XMLID_41_" transform="matrix(0.7071 -0.7071 0.7071 0.7071 -99.234 213.5251)" cx="208.1" cy="226.5" rx="196.7" ry="196.7"/>
	<g id="XMLID_11_">
		<g id="XMLID_12_">
			<path id="XMLID_40_" class="st0" d="M269.2,152.2c-7.5,0-13.5,6.1-13.5,13.5c0,7.5,6.1,13.5,13.5,13.5c7.5,0,13.5-6.1,13.5-13.5
				C282.7,158.2,276.6,152.2,269.2,152.2z"/>
			<path id="XMLID_13_" class="st0" d="M209.1,169.5c-31.3,0-56.8,25.5-56.8,56.8c0,31.3,25.5,56.8,56.8,56.8
				c31.3,0,56.8-25.5,56.8-56.8C265.9,195,240.4,169.5,209.1,169.5z M209.1,262.6c-20.1,0-36.4-16.3-36.4-36.4
				c0-20.1,16.3-36.4,36.4-36.4c20.1,0,36.4,16.3,36.4,36.4C245.5,246.3,229.1,262.6,209.1,262.6z"/>
			<path id="XMLID_14_" class="st0" d="M254.2,341.6h-92.1c-38.2,0-69.3-31.1-69.3-69.3v-92.1c0-38.2,31.1-69.3,69.3-69.3h92.1
				c38.2,0,69.3,31.1,69.3,69.3v92.1C323.4,310.5,292.3,341.6,254.2,341.6z M162.1,132.7c-26.2,0-47.6,21.3-47.6,47.6v92.1
				c0,26.2,21.3,47.6,47.6,47.6h92.1c26.2,0,47.6-21.3,47.6-47.6v-92.1c0-26.2-21.3-47.6-47.6-47.6H162.1z"/>
		</g>
	</g>
</g>
<g id="XMLID_8_">
	
		<ellipse id="XMLID_44_" transform="matrix(0.7071 -0.7071 0.7071 0.7071 52.9028 580.8157)" cx="727.6" cy="226.5" rx="196.7" ry="196.7"/>
	<path id="XMLID_9_" class="st0" d="M832.8,198c0-26.1-21.1-47.2-47.2-47.2H664.9c-26.1,0-47.2,21.1-47.2,47.2v56.2
		c0,26.1,21.1,47.2,47.2,47.2h120.8c26.1,0,47.2-21.1,47.2-47.2V198z M761.8,230.3l-54.2,26.8c-2.1,1.1-9.3-0.4-9.3-2.8v-55
		c0-2.4,7.3-4,9.4-2.8l51.8,28.2C761.7,225.9,764,229.1,761.8,230.3z"/>
</g>
<g id="XMLID_6_">
	<circle id="XMLID_4_" cx="1248" cy="226.5" r="196.7"/>
	<path id="XMLID_3_" class="st0" d="M1350.1,203.9c-2,0.2-4,0.3-6.1,0.3c-22.2,0-42.8-11.2-55-29.7v101.2
		c0,41.3-33.5,74.8-74.8,74.8c-41.3,0-74.8-33.5-74.8-74.8c0-41.3,33.5-74.8,74.8-74.8l0,0c1.6,0,3.1,0.1,4.6,0.2V238
		c-1.5-0.2-3-0.5-4.6-0.5c-21.1,0-38.2,17.1-38.2,38.2c0,21.1,17.1,38.2,38.2,38.2c21.1,0,39.7-16.6,39.7-37.7l0.4-171.9h35.3
		c3.3,31.6,28.8,56.3,60.5,58.6L1350.1,203.9"/>
</g>
<g id="XMLID_5_">
	
		<ellipse id="XMLID_48_" transform="matrix(0.7071 -0.7071 0.7071 0.7071 357.7618 1316.8112)" cx="1768.4" cy="226.5" rx="196.7" ry="196.7"/>
	<path id="XMLID_7_" class="st0" d="M1662.2,337.8l16.4-61.2c-9.3-16.7-14.2-35.5-14.2-54.6c0-62.3,50.7-113,113-113
		c62.3,0,113,50.7,113,113c0,62.3-50.7,113-113,113c-18.7,0-37.2-4.7-53.7-13.7L1662.2,337.8z M1726.7,298.4l3.9,2.3
		c14.2,8.5,30.4,13,46.8,13c50.5,0,91.6-41.1,91.6-91.6c0-50.5-41.1-91.6-91.6-91.6c-50.5,0-91.6,41.1-91.6,91.6
		c0,16.7,4.6,33.1,13.4,47.5l2.4,3.9l-9.2,34.2L1726.7,298.4z"/>
	<path id="XMLID_45_" class="st1" d="M1819.4,237.8c-4.6-2.8-10.7-5.9-16.2-3.6c-4.2,1.7-6.9,8.3-9.6,11.7c-1.4,1.7-3.1,2-5.2,1.1
		c-15.8-6.3-27.9-16.8-36.6-31.3c-1.5-2.3-1.2-4,0.6-6.1c2.6-3.1,5.9-6.6,6.6-10.8c0.7-4.2-1.2-9-3-12.8c-2.2-4.7-4.7-11.5-9.4-14.2
		c-4.4-2.5-10.1-1.1-14,2.1c-6.7,5.5-10,14.1-9.9,22.6c0,2.4,0.3,4.8,0.9,7.2c1.4,5.6,3.9,10.8,6.9,15.8c2.2,3.8,4.6,7.4,7.2,10.9
		c8.4,11.5,18.9,21.4,31.1,28.9c6.1,3.7,12.6,7,19.4,9.2c7.6,2.5,14.4,5.1,22.6,3.6c8.6-1.6,17.1-6.9,20.5-15.2
		c1-2.5,1.5-5.2,0.9-7.8C1830.9,243.6,1823.7,240.4,1819.4,237.8z"/>
</g>
<g>
	<g id="XMLID_00000182529502278515357610000014923993282106682025_">
		
			<ellipse id="XMLID_00000001647661479152045320000001635345089828920964_" transform="matrix(0.7071 -0.7071 0.7071 0.7071 510.1914 1684.8088)" cx="2288.8" cy="226.5" rx="196.7" ry="196.7"/>
	</g>
	<path class="st0" d="M2300.8,200.1c8-8.6,15.7-16.9,23.4-25.2c15.7-16.8,31.3-33.6,47-50.4c0.6-0.6,1.6-1.3,2.4-1.3
		c5.2-0.1,10.5-0.1,16.7-0.1c-27.5,29.6-54.4,58.6-81.6,87.8c29.6,39.5,59.1,78.9,89,118.7c-1.4,0.1-2.2,0.2-3,0.2
		c-19.4,0-38.8,0-58.2,0.1c-2.1,0-3.3-0.7-4.5-2.3c-19.4-26.2-38.8-52.3-58.5-78.7c-4.3,4.7-8.6,9.2-12.9,13.8
		c-19.2,20.7-38.6,41.2-57.5,62.1c-3.6,3.9-7,5.7-12.2,5.2c-3.3-0.4-6.7-0.1-11-0.1c28.9-31,57.1-61.3,85.5-91.8
		c-28.4-38.2-56.7-76.3-85.5-114.9c1.7,0,2.8,0,3.8,0c18.6,0,37.3,0.1,55.9-0.1c2.6,0,4,0.9,5.5,2.8c17.7,23.8,35.5,47.5,53.3,71.3
		C2299.1,198.1,2299.8,198.9,2300.8,200.1z M2370.7,315.3c-0.6-0.9-0.9-1.4-1.2-1.8c-24.4-32.6-48.8-65.2-73.1-97.8
		c-19-25.5-38.1-50.9-57.1-76.4c-1.3-1.8-2.7-2.6-5-2.5c-7.8,0.1-15.5,0.1-23.3,0.1c-0.9,0-1.8,0.1-3.3,0.2c1,1.3,1.6,2.3,2.3,3.2
		c23.4,31.1,46.7,62.1,70.1,93.2c20.1,26.7,40.2,53.5,60.3,80.2c0.7,0.9,2,1.7,3,1.7C2352.2,315.4,2361.1,315.3,2370.7,315.3z"/>
</g>
</svg>
